<?xml version="1.0" encoding="iso-8859-1"?>
<!-- Generator: Adobe Illustrator 18.0.0, SVG Export Plug-In . SVG Version: 6.00 Build 0)  -->
<!DOCTYPE svg PUBLIC "-//W3C//DTD SVG 1.1//EN" "http://www.w3.org/Graphics/SVG/1.1/DTD/svg11.dtd">
<svg xmlns="http://www.w3.org/2000/svg" xmlns:xlink="http://www.w3.org/1999/xlink" style="margin: auto;display: block;width: 30px;height: 30px;" width="24px&quot;" height="30px" viewBox="0 0 100 100" preserveAspectRatio="xMidYMid">
 <g transform="translate(50 50)">  <g transform="translate(-19 -19) scale(0.6)"> <g>
<animateTransform attributeName="transform" type="rotate" values="0;45" keyTimes="0;1" dur="0.5681818181818182s" begin="0s" repeatCount="indefinite"></animateTransform><path d="M32.365728687902184 21.759126970103967 L39.43679649976766 28.830194781969443 L28.830194781969446 39.43679649976765 L21.759126970103967 32.36572868790218 A39 39 0 0 1 7.500000000000006 38.27205246651922 L7.500000000000006 38.27205246651922 L7.500000000000007 48.27205246651922 L-7.500000000000001 48.27205246651922 L-7.500000000000002 38.27205246651922 A39 39 0 0 1 -21.759126970103967 32.36572868790218 L-21.759126970103967 32.36572868790218 L-28.830194781969443 39.43679649976765 L-39.43679649976765 28.830194781969453 L-32.36572868790218 21.759126970103974 A39 39 0 0 1 -38.27205246651922 7.499999999999999 L-38.27205246651922 7.499999999999999 L-48.27205246651922 7.5 L-48.27205246651923 -7.49999999999999 L-38.27205246651923 -7.499999999999991 A39 39 0 0 1 -32.365728687902184 -21.759126970103967 L-32.365728687902184 -21.759126970103967 L-39.43679649976766 -28.830194781969443 L-28.830194781969453 -39.436796499767645 L-21.759126970103974 -32.36572868790217 A39 39 0 0 1 -7.500000000000002 -38.27205246651922 L-7.500000000000002 -38.27205246651922 L-7.5000000000000036 -48.27205246651922 L7.499999999999986 -48.27205246651923 L7.499999999999988 -38.27205246651923 A39 39 0 0 1 21.759126970103964 -32.365728687902184 L21.759126970103964 -32.365728687902184 L28.830194781969436 -39.43679649976766 L39.43679649976764 -28.83019478196946 L32.36572868790217 -21.75912697010398 A39 39 0 0 1 38.27205246651922 -7.5000000000000036 L38.27205246651922 -7.5000000000000036 L48.27205246651922 -7.500000000000006 L48.27205246651923 7.499999999999982 L38.27205246651923 7.499999999999985 A39 39 0 0 1 32.365728687902184 21.759126970103964 M0 -22A22 22 0 1 0 0 22 A22 22 0 1 0 0 -22" fill="#098170"></path></g></g> <g transform="translate(19 19) scale(0.6)"> <g>
<animateTransform attributeName="transform" type="rotate" values="45;0" keyTimes="0;1" dur="0.5681818181818182s" begin="-0.2840909090909091s" repeatCount="indefinite"></animateTransform><path d="M-32.365728687902184 -21.759126970103967 L-39.43679649976766 -28.830194781969443 L-28.830194781969453 -39.436796499767645 L-21.759126970103974 -32.36572868790217 A39 39 0 0 1 -7.500000000000002 -38.27205246651922 L-7.500000000000002 -38.27205246651922 L-7.5000000000000036 -48.27205246651922 L7.499999999999986 -48.27205246651923 L7.499999999999988 -38.27205246651923 A39 39 0 0 1 21.759126970103964 -32.365728687902184 L21.759126970103964 -32.365728687902184 L28.830194781969436 -39.43679649976766 L39.43679649976764 -28.83019478196946 L32.36572868790217 -21.75912697010398 A39 39 0 0 1 38.27205246651922 -7.5000000000000036 L38.27205246651922 -7.5000000000000036 L48.27205246651922 -7.500000000000006 L48.27205246651923 7.499999999999982 L38.27205246651923 7.499999999999985 A39 39 0 0 1 32.365728687902184 21.759126970103964 L32.365728687902184 21.759126970103964 L39.43679649976766 28.830194781969436 L28.83019478196946 39.43679649976764 L21.75912697010398 32.36572868790217 A39 39 0 0 1 7.500000000000007 38.27205246651922 L7.500000000000007 38.27205246651922 L7.500000000000011 48.27205246651922 L-7.49999999999998 48.27205246651923 L-7.499999999999983 38.27205246651923 A39 39 0 0 1 -21.75912697010393 32.365728687902205 L-21.75912697010393 32.365728687902205 L-28.830194781969396 39.43679649976769 L-39.43679649976762 28.830194781969492 L-32.36572868790215 21.75912697010401 A39 39 0 0 1 -38.27205246651922 7.500000000000009 L-38.27205246651922 7.500000000000009 L-48.27205246651922 7.500000000000012 L-48.27205246651923 -7.499999999999978 L-38.27205246651923 -7.499999999999981 A39 39 0 0 1 -32.36572868790217 -21.75912697010399 M0 -22A22 22 0 1 0 0 22 A22 22 0 1 0 0 -22" fill="#1caf9a"></path></g></g></g>
</svg>